# xmcd
#
# Track frame offsets: 
#        150
#        16235
#        32208
#        48978
#        66525
#        81230
#        98215
#        113285
#        131390
#        148770
#        163545
#        180463
#
# Disc length: 2615 seconds
#
# Revision: 0
# Processed by: cddbd v1.4PL0 Copyright (c) Steve Scherf et al.
# Submitted via: ExactAudioCopy v0.90a11
#
DISCID=990a350c
DTITLE=Jenny Morris - Girl On The Run
DYEAR=1900
DGENRE=
TTITLE0=True Love Won't Treat You Like That
TTITLE1=Nobody's Business
TTITLE2=I Wouldn't Change A Thing
TTITLE3=I Started Living When I Started Loving You
TTITLE4=Love Thing
TTITLE5=Train Tracks
TTITLE6=You Don't Own Me
TTITLE7=It Must Be Love
TTITLE8=Home From Here
TTITLE9=I Can't Shake You
TTITLE10=Could It Be
TTITLE11=Girl On The Run
EXTD=
EXTT0=
EXTT1=
EXTT2=
EXTT3=
EXTT4=
EXTT5=
EXTT6=
EXTT7=
EXTT8=
EXTT9=
EXTT10=
EXTT11=
PLAYORDER=
